<svg width="631" height="357" viewBox="0 0 631 357" fill="none" xmlns="http://www.w3.org/2000/svg">
<path d="M0 17C0 5.95432 8.9543 -3 20 -3H611C622.046 -3 631 5.95431 631 17V337C631 348.046 622.046 357 611 357H20C8.95431 357 0 348.046 0 337V17Z" fill="#F8BC5C"/>
<path d="M261.562 277.594C261.562 278.854 262.156 279.862 263.344 280.618C264.532 281.338 266.062 281.824 267.934 282.076C269.842 282.328 271.948 282.526 274.252 282.67C276.556 282.814 278.86 283.048 281.164 283.372C283.468 283.66 285.556 284.11 287.428 284.722C289.336 285.298 290.884 286.288 292.072 287.692C293.26 289.096 293.854 290.86 293.854 292.984C293.854 296.8 291.892 299.716 287.968 301.732C284.044 303.748 279.022 304.756 272.902 304.756C269.482 304.756 266.476 304.468 263.884 303.892C261.328 303.28 259.33 302.542 257.89 301.678C256.45 300.778 255.28 299.716 254.38 298.492C253.48 297.268 252.886 296.134 252.598 295.09C252.346 294.01 252.22 292.876 252.22 291.688H261.022C260.986 294.172 261.994 296.008 264.046 297.196C266.134 298.348 269.068 298.924 272.848 298.924C281.164 298.924 285.322 296.98 285.322 293.092C285.322 291.688 284.71 290.608 283.486 289.852C282.298 289.06 280.75 288.556 278.842 288.34C276.934 288.088 274.81 287.908 272.47 287.8C270.166 287.692 267.862 287.512 265.558 287.26C263.254 286.972 261.148 286.522 259.24 285.91C257.332 285.298 255.766 284.272 254.542 282.832C253.354 281.356 252.76 279.466 252.76 277.162C252.76 273.526 254.56 270.7 258.16 268.684C261.76 266.668 266.908 265.66 273.604 265.66C279.724 265.66 284.548 266.758 288.076 268.954C291.64 271.114 293.386 274.516 293.314 279.16H285.052C285.052 273.94 281.236 271.33 273.604 271.33C265.576 271.33 261.562 273.418 261.562 277.594ZM334.46 272.302H310.214V283.048H332.732V287.962H310.214V297.898H334.46V304H302.816V266.2H334.46V272.302ZM362.231 265.39C368.747 265.39 374.165 267.262 378.485 271.006C382.841 274.75 385.037 279.466 385.073 285.154C385.073 290.806 382.895 295.504 378.539 299.248C374.219 302.992 368.783 304.864 362.231 304.864C355.715 304.864 350.279 302.992 345.923 299.248C341.603 295.504 339.443 290.806 339.443 285.154C339.443 279.61 341.639 274.93 346.031 271.114C350.459 267.298 355.859 265.39 362.231 265.39ZM362.231 299.14C366.407 299.14 369.881 297.898 372.653 295.414C375.461 292.93 376.865 289.582 376.865 285.37C376.865 281.014 375.569 277.612 372.977 275.164C370.385 272.716 366.911 271.456 362.555 271.384C358.307 271.312 354.779 272.554 351.971 275.11C349.199 277.666 347.813 281.086 347.813 285.37C347.813 289.654 349.181 293.02 351.917 295.468C354.653 297.916 358.091 299.14 362.231 299.14Z" fill="#202020"/>
</svg>
